<?xml version="1.0" standalone="no"?>
<!DOCTYPE svg PUBLIC "-//W3C//DTD SVG 20010904//EN"
 "http://www.w3.org/TR/2001/REC-SVG-20010904/DTD/svg10.dtd">
<svg version="1.0" xmlns="http://www.w3.org/2000/svg"
 width="1000.000000pt" height="1000.000000pt" viewBox="0 0 1000.000000 1000.000000"
 preserveAspectRatio="xMidYMid meet">
<metadata>
Created by potrace 1.14, written by Peter Selinger 2001-2017
</metadata>
<g transform="translate(0.000000,1000.000000) scale(0.100000,-0.100000)"
fill="#000000" stroke="none">
<path d="M1880 8450 c-123 -26 -238 -119 -297 -238 -38 -75 -38 -77 -38 -197
0 -215 -302 110 2579 -2770 2704 -2704 3454 -3449 3590 -3568 48 -42 113 -89
144 -104 52 -25 67 -28 167 -28 106 0 112 1 185 37 96 47 161 112 208 208 36
73 37 79 37 185 0 100 -2 115 -28 167 -16 32 -67 101 -114 155 -116 132 -6027
6047 -6078 6082 -90 63 -246 94 -355 71z m142 -323 c15 -7 1395 -1377 3067
-3045 2365 -2359 3042 -3040 3052 -3069 31 -95 -57 -184 -158 -158 -19 4 -952
932 -3057 3038 -1666 1668 -3037 3043 -3047 3056 -43 54 -14 147 55 177 38 16
53 16 88 1z"/>
<path d="M7915 8446 c-123 -30 -93 -2 -1123 -1030 -1230 -1227 -1373 -1375
-1415 -1464 -42 -90 -49 -207 -18 -296 44 -124 133 -224 251 -280 60 -29 73
-31 175 -31 100 0 115 3 166 27 31 16 89 56 130 91 41 35 391 379 779 764 388
386 707 699 709 697 2 -1 6 -668 10 -1481 l8 -1478 22 -60 c42 -115 135 -211
248 -257 48 -19 77 -23 168 -23 106 0 113 1 185 36 95 46 160 111 208 208 l37
74 8 456 c4 251 6 1181 4 2066 -5 1728 -3 1661 -55 1761 -31 61 -113 146 -169
177 -96 52 -224 68 -328 43z m172 -332 c57 -36 52 110 60 -2055 5 -1564 4
-2002 -6 -2031 -33 -100 -168 -122 -221 -36 -20 33 -20 52 -20 1876 0 1013 -3
1842 -8 1842 -4 0 -462 -455 -1017 -1011 -556 -555 -1022 -1017 -1037 -1025
-89 -47 -200 45 -168 140 14 43 2274 2303 2315 2316 35 10 71 5 102 -16z"/>
<path d="M1848 6567 c-119 -41 -221 -127 -279 -237 l-24 -45 0 -2220 0 -2220
28 -56 c34 -71 132 -170 200 -203 70 -35 156 -49 252 -43 100 6 175 38 246
104 61 57 94 105 122 182 20 55 20 76 28 1634 4 869 10 1581 12 1583 3 3 312
-300 688 -673 733 -727 722 -717 850 -744 247 -53 493 118 529 368 20 143 -19
253 -139 387 -147 165 -2068 2074 -2134 2120 -121 86 -249 107 -379 63z m1250
-1369 c643 -643 1070 -1076 1078 -1096 21 -48 9 -95 -32 -132 -39 -34 -96 -40
-142 -16 -15 8 -445 434 -957 945 -511 512 -934 931 -939 931 -5 0 -6 -795 -1
-1934 7 -1837 6 -1936 -11 -1971 -21 -45 -67 -75 -114 -75 -47 0 -80 18 -107
59 l-23 34 0 1852 c0 1018 3 1975 7 2126 l6 274 33 33 c28 28 38 32 85 32 l54
0 1063 -1062z"/>
</g>
</svg>
